<?xml version="1.0" standalone="no"?>
<!DOCTYPE svg PUBLIC "-//W3C//DTD SVG 20010904//EN"
 "http://www.w3.org/TR/2001/REC-SVG-20010904/DTD/svg10.dtd">
<svg version="1.0" xmlns="http://www.w3.org/2000/svg"
 width="1000.000000pt" height="1000.000000pt" viewBox="0 0 1000.000000 1000.000000"
 preserveAspectRatio="xMidYMid meet">
<metadata>
Created by potrace 1.14, written by Peter Selinger 2001-2017
</metadata>
<g transform="translate(0.000000,1000.000000) scale(0.100000,-0.100000)"
fill="#000000" stroke="none">
<path d="M2478 7748 c-4 -748 0 -1627 8 -2196 l6 -432 687 2 686 3 907 1585
c499 872 914 1597 923 1613 l16 27 -1615 0 -1616 0 -2 -602z"/>
<path d="M6240 6549 c-415 -721 -770 -1338 -789 -1371 l-34 -60 454 5 c489 4
525 8 699 67 473 160 762 556 834 1145 64 519 -17 978 -229 1307 -49 75 -163
218 -174 218 -3 0 -346 -590 -761 -1311z"/>
<path d="M2486 4583 c-18 -1268 -18 -1544 -2 -1653 9 -58 20 -118 24 -134 7
-26 66 72 639 1075 348 607 635 1112 638 1122 7 16 -28 17 -643 17 l-650 0 -6
-427z"/>
<path d="M5349 4993 c-31 -35 -1840 -3185 -1834 -3191 6 -6 3896 -4 3902 1 1
1 2 423 3 937 2 1006 1 1039 -52 1265 -107 461 -379 787 -771 924 -201 70
-232 74 -757 78 -451 4 -476 4 -491 -14z"/>
</g>
</svg>
